# This file uses centimeters as units for non-parametric coordinates.

mtllib slice.mtl
g default
v -0.000000 1.000001 -0.068986
v -0.104529 0.994523 -0.072222
v -0.207912 0.978148 -0.080676
v -0.309017 0.951057 -0.091592
v -0.406737 0.913546 -0.103301
v -0.500000 0.866026 -0.117645
v -0.587786 0.809017 -0.139019
v -0.669131 0.743145 -0.167190
v -0.743145 0.669131 -0.192854
v -0.809017 0.587785 -0.211492
v -0.866026 0.500000 -0.221773
v -0.913546 0.406737 -0.221773
v -0.951057 0.309017 -0.221773
v -0.978148 0.207912 -0.221773
v -0.994522 0.104528 -0.221773
v -1.000000 -0.000000 -0.221773
v -0.000000 1.000001 -0.045991
v -0.104529 0.994523 -0.048148
v -0.207912 0.978148 -0.053793
v -0.309017 0.951057 -0.061171
v -0.406737 0.913546 -0.068992
v -0.500000 0.866026 -0.078413
v -0.587786 0.809017 -0.092317
v -0.669131 0.743145 -0.110755
v -0.743145 0.669131 -0.127927
v -0.809017 0.587785 -0.140548
v -0.866026 0.500000 -0.147659
v -0.913546 0.406737 -0.147687
v -0.951057 0.309017 -0.147687
v -0.978148 0.207912 -0.147687
v -0.994522 0.104528 -0.147687
v -1.000000 -0.000000 -0.147687
v -0.000000 1.000001 -0.022996
v -0.104529 0.994523 -0.024074
v -0.207912 0.978148 -0.026902
v -0.309017 0.951057 -0.030579
v -0.406737 0.913546 -0.034520
v -0.500000 0.866026 -0.039272
v -0.587786 0.809017 -0.046204
v -0.669131 0.743145 -0.055378
v -0.743145 0.669131 -0.063932
v -0.809017 0.587785 -0.070249
v -0.866026 0.500000 -0.073818
v -0.913546 0.406737 -0.073881
v -0.951057 0.309017 -0.073881
v -0.978148 0.207912 -0.073881
v -0.994522 0.104528 -0.073881
v -1.000000 -0.000000 -0.073881
v -0.000000 1.000001 0.000000
v -0.104529 0.994523 0.000000
v -0.207912 0.978148 0.000000
v -0.309017 0.951057 0.000000
v -0.406737 0.913546 0.000000
v -0.500000 0.866026 0.000000
v -0.587786 0.809017 0.000000
v -0.669131 0.743145 0.000000
v -0.743145 0.669131 0.000000
v -0.809017 0.587785 0.000000
v -0.866026 0.500000 0.000000
v -0.913546 0.406737 0.000000
v -0.951057 0.309017 0.000000
v -0.978148 0.207912 0.000000
v -0.994522 0.104528 0.000000
v -1.000000 -0.000000 0.000000
v -0.000000 1.000001 0.022996
v -0.104529 0.994523 0.024074
v -0.207912 0.978148 0.026902
v -0.309017 0.951057 0.030579
v -0.406737 0.913546 0.034520
v -0.500000 0.866026 0.039272
v -0.587786 0.809017 0.046204
v -0.669131 0.743145 0.055378
v -0.743145 0.669131 0.063932
v -0.809017 0.587785 0.070249
v -0.866026 0.500000 0.073818
v -0.913546 0.406737 0.073881
v -0.951057 0.309017 0.073881
v -0.978148 0.207912 0.073881
v -0.994522 0.104528 0.073881
v -1.000000 -0.000000 0.073881
v -0.000000 1.000001 0.045991
v -0.104529 0.994523 0.048148
v -0.207912 0.978148 0.053793
v -0.309017 0.951057 0.061171
v -0.406737 0.913546 0.068992
v -0.500000 0.866026 0.078413
v -0.587786 0.809017 0.092317
v -0.669131 0.743145 0.110755
v -0.743145 0.669131 0.127927
v -0.809017 0.587785 0.140548
v -0.866026 0.500000 0.147659
v -0.913546 0.406737 0.147687
v -0.951057 0.309017 0.147687
v -0.978148 0.207912 0.147687
v -0.994522 0.104528 0.147687
v -1.000000 -0.000000 0.147687
v -0.000000 1.000001 0.068986
v -0.104529 0.994523 0.072222
v -0.207912 0.978148 0.080676
v -0.309017 0.951057 0.091592
v -0.406737 0.913546 0.103301
v -0.500000 0.866026 0.117645
v -0.587786 0.809017 0.139019
v -0.669131 0.743145 0.167190
v -0.743145 0.669131 0.192854
v -0.809017 0.587785 0.211492
v -0.866026 0.500000 0.221773
v -0.913546 0.406737 0.221773
v -0.951057 0.309017 0.221773
v -0.978148 0.207912 0.221773
v -0.994522 0.104528 0.221773
v -1.000000 -0.000000 0.221773
v -0.000000 0.000000 -0.068986
v -0.000000 0.000000 0.068986
vt 0.500000 -0.000000
vt 0.483667 0.000856
vt 0.467514 0.003414
vt 0.451716 0.007647
vt 0.436447 0.013508
vt 0.421875 0.020933
vt 0.408158 0.029841
vt 0.395448 0.040134
vt 0.383884 0.051698
vt 0.373591 0.064409
vt 0.364683 0.078125
vt 0.357258 0.092697
vt 0.351397 0.107966
vt 0.347164 0.123764
vt 0.344606 0.139917
vt 0.343750 0.156250
vt 0.433333 0.312500
vt 0.437500 0.312500
vt 0.441667 0.312500
vt 0.445833 0.312500
vt 0.450000 0.312500
vt 0.454167 0.312500
vt 0.458333 0.312500
vt 0.462500 0.312500
vt 0.466667 0.312500
vt 0.470833 0.312500
vt 0.475000 0.312500
vt 0.479167 0.312500
vt 0.483333 0.312500
vt 0.487500 0.312500
vt 0.491667 0.312500
vt 0.495833 0.312500
vt 0.433333 0.375000
vt 0.437500 0.375000
vt 0.441667 0.375000
vt 0.445833 0.375000
vt 0.450000 0.375000
vt 0.454167 0.375000
vt 0.458333 0.375000
vt 0.462500 0.375000
vt 0.466667 0.375000
vt 0.470833 0.375000
vt 0.475000 0.375000
vt 0.479167 0.375000
vt 0.483333 0.375000
vt 0.487500 0.375000
vt 0.491667 0.375000
vt 0.495833 0.375000
vt 0.433333 0.437500
vt 0.437500 0.437500
vt 0.441667 0.437500
vt 0.445833 0.437500
vt 0.450000 0.437500
vt 0.454167 0.437500
vt 0.458333 0.437500
vt 0.462500 0.437500
vt 0.466667 0.437500
vt 0.470833 0.437500
vt 0.475000 0.437500
vt 0.479167 0.437500
vt 0.483333 0.437500
vt 0.487500 0.437500
vt 0.491667 0.437500
vt 0.495833 0.437500
vt 0.433333 0.500000
vt 0.437500 0.500000
vt 0.441667 0.500000
vt 0.445833 0.500000
vt 0.450000 0.500000
vt 0.454167 0.500000
vt 0.458333 0.500000
vt 0.462500 0.500000
vt 0.466667 0.500000
vt 0.470833 0.500000
vt 0.475000 0.500000
vt 0.479167 0.500000
vt 0.483333 0.500000
vt 0.487500 0.500000
vt 0.491667 0.500000
vt 0.495833 0.500000
vt 0.433333 0.562500
vt 0.437500 0.562500
vt 0.441667 0.562500
vt 0.445833 0.562500
vt 0.450000 0.562500
vt 0.454167 0.562500
vt 0.458333 0.562500
vt 0.462500 0.562500
vt 0.466667 0.562500
vt 0.470833 0.562500
vt 0.475000 0.562500
vt 0.479167 0.562500
vt 0.483333 0.562500
vt 0.487500 0.562500
vt 0.491667 0.562500
vt 0.495833 0.562500
vt 0.433333 0.625000
vt 0.437500 0.625000
vt 0.441667 0.625000
vt 0.445833 0.625000
vt 0.450000 0.625000
vt 0.454167 0.625000
vt 0.458333 0.625000
vt 0.462500 0.625000
vt 0.466667 0.625000
vt 0.470833 0.625000
vt 0.475000 0.625000
vt 0.479167 0.625000
vt 0.483333 0.625000
vt 0.487500 0.625000
vt 0.491667 0.625000
vt 0.495833 0.625000
vt 0.433333 0.687500
vt 0.437500 0.687500
vt 0.441667 0.687500
vt 0.445833 0.687500
vt 0.450000 0.687500
vt 0.454167 0.687500
vt 0.458333 0.687500
vt 0.462500 0.687500
vt 0.466667 0.687500
vt 0.470833 0.687500
vt 0.475000 0.687500
vt 0.479167 0.687500
vt 0.483333 0.687500
vt 0.487500 0.687500
vt 0.491667 0.687500
vt 0.495833 0.687500
vt 0.343750 0.843750
vt 0.344606 0.860083
vt 0.347164 0.876236
vt 0.351397 0.892034
vt 0.357258 0.907303
vt 0.364684 0.921875
vt 0.373591 0.935591
vt 0.383884 0.948302
vt 0.395448 0.959866
vt 0.408159 0.970159
vt 0.421875 0.979066
vt 0.436447 0.986492
vt 0.451716 0.992353
vt 0.467514 0.996586
vt 0.483667 0.999144
vt 0.500000 1.000000
vt 0.500000 0.156250
vt 0.500000 0.843750
vn -0.052336 0.998630 0.000000
vn -0.114056 0.993474 0.000000
vn -0.106598 0.994302 0.000000
vn -0.052336 0.998630 0.000000
vn -0.223085 0.974799 0.000000
vn -0.210962 0.977494 0.000000
vn -0.325852 0.945421 0.000000
vn -0.312095 0.950051 0.000000
vn -0.424376 0.905486 0.000000
vn -0.409751 0.912197 0.000000
vn -0.520323 0.853970 0.000000
vn -0.503395 0.864056 0.000000
vn -0.611220 0.791461 0.000000
vn -0.591452 0.806340 0.000000
vn -0.692374 0.721539 0.000000
vn -0.672152 0.740413 0.000000
vn -0.761938 0.647650 0.000000
vn -0.745072 0.666984 0.000000
vn -0.821284 0.570520 0.000000
vn -0.810027 0.586393 0.000000
vn -0.870239 0.492629 0.000000
vn -0.866315 0.499498 0.000000
vn -0.913544 0.406741 0.000000
vn -0.913543 0.406742 0.000000
vn -0.951057 0.309017 0.000000
vn -0.951057 0.309017 0.000000
vn -0.978148 0.207912 0.000000
vn -0.978148 0.207912 0.000000
vn -0.994522 0.104528 0.000000
vn -0.994522 0.104528 0.000000
vn -0.998630 0.052336 0.000000
vn -0.998630 0.052336 0.000000
vn -0.106602 0.994302 0.000000
vn -0.052335 0.998630 0.000000
vn -0.210989 0.977489 0.000000
vn -0.312107 0.950047 0.000000
vn -0.409713 0.912215 0.000000
vn -0.503333 0.864093 0.000000
vn -0.591455 0.806338 0.000000
vn -0.672265 0.740310 0.000000
vn -0.745199 0.666842 0.000000
vn -0.810106 0.586283 0.000000
vn -0.866346 0.499445 0.000000
vn -0.913547 0.406734 0.000000
vn -0.951057 0.309017 0.000000
vn -0.978148 0.207912 0.000000
vn -0.994522 0.104528 0.000000
vn -0.998630 0.052336 0.000000
vn -0.106605 0.994301 0.000000
vn -0.052336 0.998630 0.000000
vn -0.210985 0.977489 0.000000
vn -0.312113 0.950045 0.000000
vn -0.409731 0.912206 0.000000
vn -0.503326 0.864097 0.000000
vn -0.591430 0.806356 0.000000
vn -0.672251 0.740324 0.000000
vn -0.745199 0.666842 0.000000
vn -0.810110 0.586278 0.000000
vn -0.866352 0.499435 0.000000
vn -0.913550 0.406726 0.000000
vn -0.951057 0.309017 0.000000
vn -0.978148 0.207912 0.000000
vn -0.994522 0.104528 0.000000
vn -0.998630 0.052336 0.000000
vn -0.106602 0.994302 0.000000
vn -0.052336 0.998630 0.000000
vn -0.210989 0.977489 0.000000
vn -0.312107 0.950047 0.000000
vn -0.409713 0.912215 0.000000
vn -0.503333 0.864092 0.000000
vn -0.591455 0.806338 0.000000
vn -0.672265 0.740310 0.000000
vn -0.745199 0.666842 0.000000
vn -0.810106 0.586283 0.000000
vn -0.866346 0.499445 0.000000
vn -0.913547 0.406734 0.000000
vn -0.951057 0.309017 0.000000
vn -0.978148 0.207912 0.000000
vn -0.994522 0.104528 0.000000
vn -0.998630 0.052336 0.000000
vn -0.106597 0.994302 0.000000
vn -0.052336 0.998630 0.000000
vn -0.210962 0.977494 0.000000
vn -0.312094 0.950051 0.000000
vn -0.409751 0.912197 0.000000
vn -0.503395 0.864056 0.000000
vn -0.591452 0.806341 0.000000
vn -0.672152 0.740413 0.000000
vn -0.745072 0.666984 0.000000
vn -0.810027 0.586393 0.000000
vn -0.866315 0.499498 0.000000
vn -0.913543 0.406742 0.000000
vn -0.951057 0.309017 0.000000
vn -0.978148 0.207912 0.000000
vn -0.994522 0.104528 0.000000
vn -0.998630 0.052336 0.000000
vn -0.114056 0.993474 0.000000
vn -0.052336 0.998630 0.000000
vn -0.223084 0.974799 0.000000
vn -0.325852 0.945421 0.000000
vn -0.424376 0.905486 0.000000
vn -0.520323 0.853970 0.000000
vn -0.611219 0.791461 0.000000
vn -0.692374 0.721539 0.000000
vn -0.761938 0.647650 0.000000
vn -0.821284 0.570520 0.000000
vn -0.870239 0.492629 0.000000
vn -0.913544 0.406741 0.000000
vn -0.951057 0.309017 0.000000
vn -0.978148 0.207912 0.000000
vn -0.994522 0.104528 0.000000
vn -0.998630 0.052336 0.000000
vn 0.055939 0.002632 -0.998431
vn 0.030934 0.000000 -0.999521
vn 0.157045 0.019300 -0.987403
vn 0.092821 0.007831 -0.995652
vn 0.109380 0.011916 -0.993929
vn 0.127374 0.019462 -0.991664
vn 0.172151 0.044100 -0.984083
vn 0.229855 0.083059 -0.969674
vn 0.246936 0.094905 -0.964373
vn 0.223466 0.068191 -0.972323
vn 0.189452 0.022768 -0.981626
vn 0.153322 -0.036196 -0.987513
vn 0.137976 -0.061431 -0.988529
vn 0.143641 -0.046672 -0.988529
vn 0.147733 -0.031402 -0.988529
vn 0.150206 -0.015787 -0.988529
vn 0.151029 -0.007915 -0.988498
vn 0.030934 0.000000 0.999521
vn 0.055939 0.002632 0.998431
vn 0.157045 0.019300 0.987403
vn 0.092821 0.007831 0.995652
vn 0.109380 0.011916 0.993929
vn 0.127374 0.019462 0.991664
vn 0.172151 0.044100 0.984083
vn 0.229855 0.083059 0.969674
vn 0.246936 0.094905 0.964373
vn 0.223466 0.068191 0.972323
vn 0.189452 0.022768 0.981626
vn 0.153322 -0.036196 0.987513
vn 0.137976 -0.061431 0.988529
vn 0.143641 -0.046672 0.988529
vn 0.147733 -0.031402 0.988529
vn 0.150206 -0.015787 0.988529
vn 0.151029 -0.007915 0.988498
vn 0.428708 -0.903443 0.000000
vn 0.428708 -0.903443 0.000000
vn 0.428708 -0.903443 0.000000
vn 0.428708 -0.903443 0.000000
vn 0.428708 -0.903443 0.000000
vn 0.428708 -0.903443 0.000000
vn 0.428708 -0.903443 0.000000
vn 0.428708 -0.903443 0.000000
vn 0.428708 -0.903443 0.000000
vn 0.428708 -0.903443 0.000000
vn 0.428708 -0.903443 0.000000
vn 0.428708 -0.903443 0.000000
vn 0.428708 -0.903443 0.000000
vn 0.428708 -0.903443 0.000000
vn 0.428708 -0.903443 0.000000
vn 0.428708 -0.903443 0.000000
s 1
g pCylinder1
usemtl initialShadingGroup
f 1/17/1 2/18/2 18/34/3 17/33/4
f 2/18/2 3/19/5 19/35/6 18/34/3
f 3/19/5 4/20/7 20/36/8 19/35/6
f 4/20/7 5/21/9 21/37/10 20/36/8
f 5/21/9 6/22/11 22/38/12 21/37/10
f 6/22/11 7/23/13 23/39/14 22/38/12
f 7/23/13 8/24/15 24/40/16 23/39/14
f 8/24/15 9/25/17 25/41/18 24/40/16
f 9/25/17 10/26/19 26/42/20 25/41/18
f 10/26/19 11/27/21 27/43/22 26/42/20
f 11/27/21 12/28/23 28/44/24 27/43/22
f 12/28/23 13/29/25 29/45/26 28/44/24
f 13/29/25 14/30/27 30/46/28 29/45/26
f 14/30/27 15/31/29 31/47/30 30/46/28
f 15/31/29 16/32/31 32/48/32 31/47/30
f 17/33/4 18/34/3 34/50/33 33/49/34
f 18/34/3 19/35/6 35/51/35 34/50/33
f 19/35/6 20/36/8 36/52/36 35/51/35
f 20/36/8 21/37/10 37/53/37 36/52/36
f 21/37/10 22/38/12 38/54/38 37/53/37
f 22/38/12 23/39/14 39/55/39 38/54/38
f 23/39/14 24/40/16 40/56/40 39/55/39
f 24/40/16 25/41/18 41/57/41 40/56/40
f 25/41/18 26/42/20 42/58/42 41/57/41
f 26/42/20 27/43/22 43/59/43 42/58/42
f 27/43/22 28/44/24 44/60/44 43/59/43
f 28/44/24 29/45/26 45/61/45 44/60/44
f 29/45/26 30/46/28 46/62/46 45/61/45
f 30/46/28 31/47/30 47/63/47 46/62/46
f 31/47/30 32/48/32 48/64/48 47/63/47
f 33/49/34 34/50/33 50/66/49 49/65/50
f 34/50/33 35/51/35 51/67/51 50/66/49
f 35/51/35 36/52/36 52/68/52 51/67/51
f 36/52/36 37/53/37 53/69/53 52/68/52
f 37/53/37 38/54/38 54/70/54 53/69/53
f 38/54/38 39/55/39 55/71/55 54/70/54
f 39/55/39 40/56/40 56/72/56 55/71/55
f 40/56/40 41/57/41 57/73/57 56/72/56
f 41/57/41 42/58/42 58/74/58 57/73/57
f 42/58/42 43/59/43 59/75/59 58/74/58
f 43/59/43 44/60/44 60/76/60 59/75/59
f 44/60/44 45/61/45 61/77/61 60/76/60
f 45/61/45 46/62/46 62/78/62 61/77/61
f 46/62/46 47/63/47 63/79/63 62/78/62
f 47/63/47 48/64/48 64/80/64 63/79/63
f 49/65/50 50/66/49 66/82/65 65/81/66
f 50/66/49 51/67/51 67/83/67 66/82/65
f 51/67/51 52/68/52 68/84/68 67/83/67
f 52/68/52 53/69/53 69/85/69 68/84/68
f 53/69/53 54/70/54 70/86/70 69/85/69
f 54/70/54 55/71/55 71/87/71 70/86/70
f 55/71/55 56/72/56 72/88/72 71/87/71
f 56/72/56 57/73/57 73/89/73 72/88/72
f 57/73/57 58/74/58 74/90/74 73/89/73
f 58/74/58 59/75/59 75/91/75 74/90/74
f 59/75/59 60/76/60 76/92/76 75/91/75
f 60/76/60 61/77/61 77/93/77 76/92/76
f 61/77/61 62/78/62 78/94/78 77/93/77
f 62/78/62 63/79/63 79/95/79 78/94/78
f 63/79/63 64/80/64 80/96/80 79/95/79
f 65/81/66 66/82/65 82/98/81 81/97/82
f 66/82/65 67/83/67 83/99/83 82/98/81
f 67/83/67 68/84/68 84/100/84 83/99/83
f 68/84/68 69/85/69 85/101/85 84/100/84
f 69/85/69 70/86/70 86/102/86 85/101/85
f 70/86/70 71/87/71 87/103/87 86/102/86
f 71/87/71 72/88/72 88/104/88 87/103/87
f 72/88/72 73/89/73 89/105/89 88/104/88
f 73/89/73 74/90/74 90/106/90 89/105/89
f 74/90/74 75/91/75 91/107/91 90/106/90
f 75/91/75 76/92/76 92/108/92 91/107/91
f 76/92/76 77/93/77 93/109/93 92/108/92
f 77/93/77 78/94/78 94/110/94 93/109/93
f 78/94/78 79/95/79 95/111/95 94/110/94
f 79/95/79 80/96/80 96/112/96 95/111/95
f 81/97/82 82/98/81 98/114/97 97/113/98
f 82/98/81 83/99/83 99/115/99 98/114/97
f 83/99/83 84/100/84 100/116/100 99/115/99
f 84/100/84 85/101/85 101/117/101 100/116/100
f 85/101/85 86/102/86 102/118/102 101/117/101
f 86/102/86 87/103/87 103/119/103 102/118/102
f 87/103/87 88/104/88 104/120/104 103/119/103
f 88/104/88 89/105/89 105/121/105 104/120/104
f 89/105/89 90/106/90 106/122/106 105/121/105
f 90/106/90 91/107/91 107/123/107 106/122/106
f 91/107/91 92/108/92 108/124/108 107/123/107
f 92/108/92 93/109/93 109/125/109 108/124/108
f 93/109/93 94/110/94 110/126/110 109/125/109
f 94/110/94 95/111/95 111/127/111 110/126/110
f 95/111/95 96/112/96 112/128/112 111/127/111
s 2
f 2/2/113 1/1/114 113/145/115
f 3/3/116 2/2/113 113/145/115
f 4/4/117 3/3/116 113/145/115
f 5/5/118 4/4/117 113/145/115
f 6/6/119 5/5/118 113/145/115
f 7/7/120 6/6/119 113/145/115
f 8/8/121 7/7/120 113/145/115
f 9/9/122 8/8/121 113/145/115
f 10/10/123 9/9/122 113/145/115
f 11/11/124 10/10/123 113/145/115
f 12/12/125 11/11/124 113/145/115
f 13/13/126 12/12/125 113/145/115
f 14/14/127 13/13/126 113/145/115
f 15/15/128 14/14/127 113/145/115
f 16/16/129 15/15/128 113/145/115
s 3
f 97/144/130 98/143/131 114/146/132
f 98/143/131 99/142/133 114/146/132
f 99/142/133 100/141/134 114/146/132
f 100/141/134 101/140/135 114/146/132
f 101/140/135 102/139/136 114/146/132
f 102/139/136 103/138/137 114/146/132
f 103/138/137 104/137/138 114/146/132
f 104/137/138 105/136/139 114/146/132
f 105/136/139 106/135/140 114/146/132
f 106/135/140 107/134/141 114/146/132
f 107/134/141 108/133/142 114/146/132
f 108/133/142 109/132/143 114/146/132
f 109/132/143 110/131/144 114/146/132
f 110/131/144 111/130/145 114/146/132
f 111/130/145 112/129/146 114/146/132
s off
f 17/33/147 33/49/148 49/65/149 65/81/150 81/97/151 97/144/152 114/146/153 112/128/154 96/112/155 80/96/156 64/80/157 48/64/158 32/48/159 16/16/160 113/145/161 1/17/162
