# This file uses centimeters as units for non-parametric coordinates.

mtllib slice_cut.mtl
g default
v -0.587786 0.809017 -0.139019
v -0.669131 0.743145 -0.167190
v -0.669131 0.743145 -0.110755
v -0.587786 0.809017 -0.092317
v -0.743145 0.669131 0.127927
v -0.809017 0.587785 0.140548
v -0.809017 0.587785 0.211492
v -0.743145 0.669131 0.192854
v -0.669131 0.743145 0.000000
v -0.743145 0.669131 0.000000
v -0.743145 0.669131 0.063932
v -0.669131 0.743145 0.055378
v -0.630187 0.457858 0.179992
v -0.580519 0.522702 0.165747
v -0.621815 0.472189 0.177405
v -0.396116 0.686093 -0.107535
v -0.464648 0.639533 -0.124348
v -0.452972 0.649913 -0.121333
v -0.000000 1.000001 -0.045991
v -0.000000 1.000001 -0.022996
v -0.000000 1.000001 0.000000
v -0.000000 1.000001 0.022996
v -0.000000 1.000001 0.045991
v -0.000000 1.000001 0.068986
v -0.000000 0.797907 0.068986
v -0.773688 -0.000000 0.187195
v -1.000000 -0.000000 0.221773
v -1.000000 -0.000000 0.147687
v -1.000000 -0.000000 0.073881
v -1.000000 -0.000000 0.000000
v -1.000000 -0.000000 -0.073881
v -1.000000 -0.000000 -0.147687
v -1.000000 -0.000000 -0.221773
v -0.773688 -0.000000 -0.187195
v -0.000000 0.797907 -0.068986
v -0.000000 1.000001 -0.068986
v -0.669131 0.743145 -0.055378
v -0.587786 0.809017 -0.046204
v -0.669131 0.743145 0.110755
v -0.525999 0.584180 0.146183
v -0.464648 0.639533 0.124348
v -0.587786 0.809017 0.000000
v -0.543933 0.568044 0.152232
v -0.669131 0.743145 0.167190
v -0.323476 0.726540 -0.096277
v -0.348849 0.715778 -0.100124
v -0.587786 0.809017 0.046204
v -0.500000 0.866026 -0.117645
v -0.500000 0.866026 -0.078413
v -0.587786 0.809017 0.092317
v -0.500000 0.866026 -0.039272
v -0.246361 0.758221 -0.087008
v -0.280329 0.744753 -0.091084
v -0.396116 0.686093 0.107535
v -0.452972 0.649913 0.121333
v -0.500000 0.866026 0.000000
v -0.587786 0.809017 0.139019
v -0.500000 0.866026 0.039272
v -0.165605 0.779110 -0.078298
v -0.231667 0.764018 -0.085403
v -0.406737 0.913546 -0.103301
v -0.406737 0.913546 -0.068992
v -0.500000 0.866026 0.078413
v -0.323476 0.726540 0.096277
v -0.348849 0.715778 0.100124
v -0.406737 0.913546 -0.034520
v -0.500000 0.866026 0.117645
v -0.406737 0.913546 0.000000
v -0.246361 0.758221 0.087008
v -0.280329 0.744753 0.091084
v -0.406737 0.913546 0.034520
v -0.406737 0.913546 0.068992
v -0.309017 0.951057 -0.091592
v -0.309017 0.951057 -0.061171
v -0.165605 0.779110 0.078298
v -0.231666 0.764018 0.085403
v -0.309017 0.951057 -0.030579
v -0.406737 0.913546 0.103301
v -0.309017 0.951057 0.000000
v -0.309017 0.951057 0.030579
v -0.309017 0.951057 0.061171
v -0.207912 0.978148 -0.080676
v -0.207912 0.978148 -0.053793
v -0.309017 0.951057 0.091592
v -0.207912 0.978148 -0.026902
v -0.207912 0.978148 0.000000
v -0.207912 0.978148 0.026902
v -0.083516 0.794598 -0.071571
v -0.102070 0.793446 -0.073079
v -0.100398 0.793569 -0.072943
v -0.207912 0.978148 0.053793
v -0.104529 0.994523 -0.072222
v -0.104529 0.994523 -0.048148
v -0.207912 0.978148 0.080676
v -0.104529 0.994523 -0.024074
v -0.104529 0.994523 0.000000
v -0.051275 0.796471 -0.070573
v -0.022643 0.797569 -0.069687
v -0.104529 0.994523 0.024074
v -0.104529 0.994523 0.048148
v -0.104529 0.994523 0.072222
v -0.083516 0.794598 0.071571
v -0.100398 0.793569 0.072943
v -0.102070 0.793446 0.073079
v -0.022643 0.797569 0.069687
v -0.051275 0.796471 0.070573
v -0.671865 0.387901 0.187518
v -0.525999 0.584180 -0.146183
v -0.743145 0.669131 -0.063932
v -0.809017 0.587785 0.070249
v -0.866026 0.500000 0.221773
v -0.743145 0.669131 -0.127927
v -0.706840 0.314705 0.187202
v -0.686027 0.364707 0.187838
v -0.866026 0.500000 0.147659
v -0.809017 0.587785 0.000000
v -0.755450 0.160576 0.186987
v -0.736499 0.239303 0.187304
v -0.580519 0.522702 -0.165747
v -0.543933 0.568044 -0.152232
v -0.743145 0.669131 -0.192854
v -0.630187 0.457858 -0.179992
v -0.671865 0.387901 -0.187518
v -0.809017 0.587785 -0.070249
v -0.866026 0.500000 0.073818
v -0.734324 0.248245 0.187484
v -0.621815 0.472189 -0.177405
v -0.809017 0.587785 -0.140548
v -0.913546 0.406737 0.147687
v -0.913546 0.406737 0.221773
v -0.866026 0.500000 0.000000
v -0.736499 0.239303 -0.187304
v -0.755450 0.160576 -0.186987
v -0.809017 0.587785 -0.211492
v -0.767390 0.080656 0.186879
v -0.763763 0.125669 0.187408
v -0.913546 0.406737 0.073881
v -0.866026 0.500000 -0.073818
v -0.951057 0.309017 0.147687
v -0.951057 0.309017 0.221773
v -0.913546 0.406737 0.000000
v -0.773688 0.000000 0.187195
v -0.866026 0.500000 -0.147659
v -0.706840 0.314705 -0.187202
v -0.686027 0.364707 -0.187838
v -0.978148 0.207912 0.221773
v -0.866026 0.500000 -0.221773
v -0.951057 0.309017 0.073881
v -0.913546 0.406737 -0.073881
v -0.734324 0.248245 -0.187484
v -0.978148 0.207912 0.147687
v -0.951057 0.309017 0.000000
v -0.913546 0.406737 -0.147687
v -0.978148 0.207912 0.073881
v -0.951057 0.309017 -0.073881
v -0.913546 0.406737 -0.221773
v -0.767390 0.080656 -0.186879
v -0.763763 0.125669 -0.187408
v -0.994522 0.104528 0.147687
v -0.994522 0.104528 0.221773
v -0.978148 0.207912 0.000000
v -0.951057 0.309017 -0.147687
v -0.773688 0.000000 -0.187195
v -0.994522 0.104528 0.073881
v -0.978148 0.207912 -0.073881
v -0.951057 0.309017 -0.221773
v -0.994522 0.104528 0.000000
v -0.978148 0.207912 -0.147687
v -0.978148 0.207912 -0.221773
v -0.994522 0.104528 -0.073881
v -0.994522 0.104528 -0.147687
v -0.994522 0.104528 -0.221773
vt 0.458333 0.312500
vt 0.462500 0.312500
vt 0.462500 0.375000
vt 0.458333 0.375000
vt 0.466667 0.625000
vt 0.470833 0.625000
vt 0.470833 0.687500
vt 0.466667 0.687500
vt 0.462500 0.500000
vt 0.466667 0.500000
vt 0.466667 0.562500
vt 0.462500 0.562500
vt 0.401533 0.915290
vt 0.409294 0.925422
vt 0.402842 0.917530
vt 0.438107 0.049048
vt 0.427399 0.056323
vt 0.429223 0.054701
vt 0.433333 0.375000
vt 0.433333 0.437500
vt 0.433333 0.500000
vt 0.433333 0.562500
vt 0.433333 0.625000
vt 0.500000 1.000000
vt 0.500000 0.968423
vt 0.495833 0.687500
vt 0.495833 0.625000
vt 0.495833 0.562500
vt 0.495833 0.500000
vt 0.495833 0.437500
vt 0.495833 0.375000
vt 0.343750 0.156250
vt 0.379111 0.156250
vt 0.433333 0.312500
vt 0.462500 0.437500
vt 0.458333 0.437500
vt 0.383884 0.948302
vt 0.373591 0.935591
vt 0.462500 0.625000
vt 0.417813 0.935028
vt 0.427399 0.943677
vt 0.458333 0.500000
vt 0.415010 0.932507
vt 0.462500 0.687500
vt 0.449457 0.042728
vt 0.445492 0.044410
vt 0.458333 0.562500
vt 0.454167 0.312500
vt 0.454167 0.375000
vt 0.408158 0.029841
vt 0.421875 0.020933
vt 0.458333 0.625000
vt 0.454167 0.437500
vt 0.461506 0.037778
vt 0.456199 0.039882
vt 0.395448 0.959866
vt 0.438107 0.950952
vt 0.429223 0.945299
vt 0.454167 0.500000
vt 0.458333 0.687500
vt 0.408159 0.970159
vt 0.454167 0.562500
vt 0.474124 0.034514
vt 0.463802 0.036872
vt 0.450000 0.312500
vt 0.450000 0.375000
vt 0.454167 0.625000
vt 0.449457 0.957272
vt 0.445492 0.955590
vt 0.450000 0.437500
vt 0.454167 0.687500
vt 0.450000 0.500000
vt 0.461506 0.962222
vt 0.456199 0.960118
vt 0.436447 0.013508
vt 0.450000 0.562500
vt 0.450000 0.625000
vt 0.445833 0.312500
vt 0.445833 0.375000
vt 0.474124 0.965486
vt 0.463802 0.963128
vt 0.445833 0.437500
vt 0.450000 0.687500
vt 0.445833 0.500000
vt 0.421875 0.979066
vt 0.445833 0.562500
vt 0.445833 0.625000
vt 0.441667 0.312500
vt 0.441667 0.375000
vt 0.451716 0.007647
vt 0.445833 0.687500
vt 0.441667 0.437500
vt 0.441667 0.500000
vt 0.441667 0.562500
vt 0.486951 0.032094
vt 0.484052 0.032274
vt 0.484313 0.032255
vt 0.441667 0.625000
vt 0.437500 0.312500
vt 0.437500 0.375000
vt 0.436447 0.986492
vt 0.441667 0.687500
vt 0.437500 0.437500
vt 0.437500 0.500000
vt 0.467514 0.003414
vt 0.500000 0.031577
vt 0.491988 0.031801
vt 0.496462 0.031630
vt 0.437500 0.562500
vt 0.437500 0.625000
vt 0.437500 0.687500
vt 0.451716 0.992353
vt 0.486951 0.967906
vt 0.484313 0.967745
vt 0.484052 0.967726
vt 0.433333 0.687500
vt 0.496462 0.968370
vt 0.491988 0.968199
vt 0.467514 0.996586
vt 0.483667 0.000856
vt 0.500000 -0.000000
vt 0.483667 0.999144
vt 0.395021 0.904360
vt 0.417813 0.064972
vt 0.395448 0.040134
vt 0.466667 0.437500
vt 0.470833 0.562500
vt 0.364684 0.921875
vt 0.466667 0.375000
vt 0.389556 0.892923
vt 0.392808 0.900735
vt 0.475000 0.625000
vt 0.475000 0.687500
vt 0.470833 0.500000
vt 0.381961 0.868840
vt 0.384922 0.881141
vt 0.409294 0.074578
vt 0.415010 0.067493
vt 0.466667 0.312500
vt 0.401533 0.084710
vt 0.395021 0.095640
vt 0.470833 0.437500
vt 0.475000 0.562500
vt 0.385262 0.882538
vt 0.402841 0.082470
vt 0.470833 0.375000
vt 0.383884 0.051698
vt 0.479167 0.625000
vt 0.479167 0.687500
vt 0.475000 0.500000
vt 0.357258 0.907303
vt 0.384922 0.118859
vt 0.381961 0.131160
vt 0.470833 0.312500
vt 0.380095 0.856353
vt 0.380662 0.863386
vt 0.479167 0.562500
vt 0.475000 0.437500
vt 0.483333 0.625000
vt 0.483333 0.687500
vt 0.479167 0.500000
vt 0.379111 0.843750
vt 0.379111 0.843750
vt 0.475000 0.375000
vt 0.389556 0.107077
vt 0.392808 0.099265
vt 0.351397 0.892034
vt 0.347164 0.876236
vt 0.364683 0.078125
vt 0.373591 0.064409
vt 0.483333 0.562500
vt 0.479167 0.437500
vt 0.475000 0.312500
vt 0.385262 0.117462
vt 0.487500 0.625000
vt 0.487500 0.687500
vt 0.483333 0.500000
vt 0.479167 0.375000
vt 0.487500 0.562500
vt 0.483333 0.437500
vt 0.479167 0.312500
vt 0.380095 0.143648
vt 0.380662 0.136614
vt 0.491667 0.625000
vt 0.491667 0.687500
vt 0.487500 0.500000
vt 0.483333 0.375000
vt 0.379111 0.156250
vt 0.491667 0.562500
vt 0.487500 0.437500
vt 0.483333 0.312500
vt 0.491667 0.500000
vt 0.344606 0.860083
vt 0.487500 0.375000
vt 0.347164 0.123764
vt 0.351397 0.107966
vt 0.491667 0.437500
vt 0.487500 0.312500
vt 0.357258 0.092697
vt 0.491667 0.375000
vt 0.343750 0.843750
vt 0.491667 0.312500
vt 0.495833 0.312500
vt 0.344606 0.139917
vn -0.597615 0.801783 0.000000
vn -0.678402 0.734691 0.000000
vn -0.672249 0.740325 0.000000
vn -0.591526 0.806286 0.000000
vn -0.745139 0.666909 0.000000
vn -0.810055 0.586354 0.000000
vn -0.812754 0.582608 0.000000
vn -0.749783 0.661684 0.000000
vn -0.672251 0.740323 0.000000
vn -0.745199 0.666842 0.000000
vn -0.745201 0.666840 0.000000
vn -0.672265 0.740311 0.000000
vn -0.672265 0.740311 0.000000
vn -0.591450 0.806342 0.000000
vn 0.226707 0.071980 0.971299
vn 0.192475 0.027098 0.980928
vn 0.191832 0.026177 0.981079
vn 0.210558 0.053150 0.976135
vn 0.226721 0.071996 0.971295
vn -0.672249 0.740326 0.000000
vn -0.591430 0.806356 0.000000
vn -0.678402 0.734691 0.000000
vn -0.591450 0.806342 0.000000
vn -0.508216 0.861230 0.000000
vn -0.503416 0.864044 0.000000
vn 0.226610 0.080618 -0.970643
vn 0.169986 0.042826 -0.984515
vn 0.170417 0.043079 -0.984430
vn 0.199174 0.060037 -0.978123
vn 0.227735 0.081464 -0.970310
vn -0.591526 0.806286 0.000000
vn -0.503326 0.864097 0.000000
vn 0.247736 0.095662 0.964093
vn 0.243329 0.091492 0.965619
vn 0.247876 0.095795 0.964044
vn -0.503326 0.864097 0.000000
vn -0.597615 0.801783 0.000000
vn 0.227735 0.081464 0.970310
vn 0.226610 0.080618 0.970643
vn -0.503326 0.864097 0.000000
vn -0.413486 0.910510 0.000000
vn -0.409739 0.912203 0.000000
vn -0.503416 0.864044 0.000000
vn -0.409710 0.912216 0.000000
vn -0.508216 0.861230 0.000000
vn -0.409731 0.912206 0.000000
vn 0.126821 0.019213 -0.991740
vn 0.126599 0.019113 -0.991770
vn 0.139536 0.024943 -0.989903
vn -0.409710 0.912216 0.000000
vn -0.409739 0.912203 0.000000
vn -0.315424 0.948951 0.000000
vn -0.312079 0.950056 0.000000
vn -0.312106 0.950047 0.000000
vn -0.413486 0.910510 0.000000
vn -0.312113 0.950045 0.000000
vn 0.169986 0.042826 0.984515
vn 0.199174 0.060037 0.978123
vn 0.170417 0.043079 0.984430
vn -0.312106 0.950047 0.000000
vn -0.312079 0.950056 0.000000
vn -0.213882 0.976860 0.000000
vn -0.210956 0.977496 0.000000
vn 0.109267 0.011879 -0.993941
vn 0.109436 0.011934 -0.993922
vn 0.113893 0.013394 -0.993403
vn -0.315424 0.948951 0.000000
vn -0.210989 0.977489 0.000000
vn -0.210985 0.977489 0.000000
vn -0.210989 0.977489 0.000000
vn -0.210956 0.977496 0.000000
vn -0.108410 0.994106 0.000000
vn -0.106597 0.994302 0.000000
vn 0.126821 0.019213 0.991740
vn 0.139536 0.024943 0.989903
vn 0.126599 0.019113 0.991770
vn -0.213882 0.976860 0.000000
vn -0.106602 0.994302 0.000000
vn -0.106605 0.994302 0.000000
vn 0.092695 0.007804 -0.995664
vn 0.092782 0.007822 -0.995656
vn 0.104591 0.010347 -0.994462
vn -0.106602 0.994302 0.000000
vn -0.106597 0.994302 0.000000
vn -0.052336 0.998630 0.000000
vn -0.052336 0.998630 0.000000
vn -0.108410 0.994106 0.000000
vn -0.052336 0.998630 0.000000
vn -0.052336 0.998630 0.000000
vn 0.109267 0.011879 0.993941
vn 0.113893 0.013394 0.993403
vn 0.109436 0.011934 0.993922
vn -0.052336 0.998630 0.000000
vn -0.052336 0.998630 0.000000
vn -0.052336 0.998630 0.000000
vn 0.092694 0.007804 0.995664
vn 0.104591 0.010347 0.994461
vn 0.092782 0.007822 0.995656
vn 0.055861 0.002624 -0.998435
vn 0.055139 0.002547 -0.998475
vn 0.080683 0.005238 -0.996726
vn 0.080683 0.005238 -0.996726
vn 0.030935 0.000000 -0.999521
vn 0.030935 0.000000 -0.999521
vn 0.030935 0.000000 -0.999521
vn 0.030935 0.000000 -0.999521
vn 0.055861 0.002624 0.998435
vn 0.080683 0.005238 0.996726
vn 0.080683 0.005238 0.996726
vn 0.055139 0.002547 0.998475
vn 0.030934 0.000000 0.999521
vn 0.030934 0.000000 0.999521
vn 0.030934 0.000000 0.999521
vn 0.030934 0.000000 0.999521
vn 0.247876 0.095795 -0.964044
vn 0.247736 0.095662 -0.964093
vn -0.745201 0.666840 0.000000
vn -0.810107 0.586282 0.000000
vn 0.154778 -0.033631 0.987377
vn 0.155215 -0.032861 0.987334
vn -0.745139 0.666909 0.000000
vn -0.866321 0.499487 0.000000
vn -0.867147 0.498053 0.000000
vn -0.810110 0.586278 0.000000
vn -0.749783 0.661684 0.000000
vn -0.810107 0.586282 0.000000
vn -0.866346 0.499445 0.000000
vn -0.810055 0.586354 0.000000
vn 0.226707 0.071980 -0.971299
vn 0.243329 0.091492 -0.965619
vn 0.226721 0.071996 -0.971295
vn -0.913543 0.406742 0.000000
vn -0.913544 0.406741 0.000000
vn -0.866352 0.499435 0.000000
vn 0.137985 -0.061410 0.988529
vn 0.138038 -0.061291 0.988529
vn 0.134752 -0.068660 0.988498
vn -0.812754 0.582607 0.000000
vn -0.913547 0.406734 0.000000
vn -0.866346 0.499445 0.000000
vn -0.951057 0.309017 0.000000
vn -0.951057 0.309017 0.000000
vn -0.913550 0.406726 0.000000
vn -0.866321 0.499487 0.000000
vn 0.143769 -0.046281 0.988529
vn 0.143648 -0.046653 0.988529
vn 0.147733 -0.031404 0.988529
vn 0.147706 -0.031531 0.988529
vn 0.155215 -0.032861 -0.987334
vn 0.154778 -0.033631 -0.987377
vn 0.192475 0.027098 -0.980928
vn 0.191832 0.026177 -0.981079
vn -0.951057 0.309017 0.000000
vn -0.913547 0.406734 0.000000
vn -0.867147 0.498053 0.000000
vn 0.141191 -0.054198 0.988498
vn 0.210558 0.053150 -0.976135
vn -0.978148 0.207912 0.000000
vn -0.978148 0.207911 0.000000
vn -0.951057 0.309017 0.000000
vn -0.913543 0.406742 0.000000
vn -0.978148 0.207912 0.000000
vn -0.951057 0.309017 0.000000
vn -0.913544 0.406741 0.000000
vn -0.994522 0.104529 0.000000
vn -0.994522 0.104529 0.000000
vn -0.978148 0.207912 0.000000
vn -0.951057 0.309017 0.000000
vn -0.994522 0.104529 0.000000
vn -0.978148 0.207912 0.000000
vn -0.951057 0.309017 0.000000
vn -0.998630 0.052336 0.000000
vn -0.998630 0.052337 0.000000
vn -0.994522 0.104528 0.000000
vn 0.150208 -0.015774 0.988529
vn 0.150221 -0.015645 0.988529
vn 0.149374 -0.023659 0.988498
vn -0.978148 0.207911 0.000000
vn 0.147706 -0.031531 -0.988529
vn 0.147733 -0.031404 -0.988529
vn 0.143648 -0.046653 -0.988529
vn 0.143769 -0.046281 -0.988529
vn -0.998630 0.052336 0.000000
vn -0.994522 0.104528 0.000000
vn -0.978148 0.207911 0.000000
vn 0.137985 -0.061410 -0.988529
vn 0.134752 -0.068660 -0.988498
vn 0.138038 -0.061291 -0.988529
vn -0.998630 0.052336 0.000000
vn -0.994522 0.104528 0.000000
vn 0.151029 -0.007915 0.988498
vn 0.151029 -0.007915 0.988498
vn 0.151029 -0.007915 0.988498
vn -0.998630 0.052336 0.000000
vn -0.994522 0.104529 0.000000
vn -0.998630 0.052336 0.000000
vn 0.141191 -0.054198 -0.988498
vn -0.998630 0.052337 0.000000
vn 0.150208 -0.015774 -0.988529
vn 0.149374 -0.023659 -0.988498
vn 0.150221 -0.015645 -0.988529
vn 0.151029 -0.007915 -0.988498
vn 0.151029 -0.007915 -0.988498
vn 0.151029 -0.007915 -0.988498
vn 0.716721 -0.697361 0.000000
vn 0.716721 -0.697361 0.000000
vn 0.716721 -0.697361 0.000000
vn 0.716721 -0.697361 0.000000
vn 0.716721 -0.697361 0.000000
vn 0.716721 -0.697361 0.000000
vn 0.716721 -0.697361 0.000000
vn 0.716721 -0.697361 0.000000
vn 0.716721 -0.697361 0.000000
vn 0.716721 -0.697361 0.000000
vn 0.716721 -0.697361 0.000000
vn 0.716721 -0.697361 0.000000
vn 0.716721 -0.697361 0.000000
vn 0.716721 -0.697361 0.000000
vn 0.716721 -0.697361 0.000000
vn 0.716721 -0.697361 0.000000
vn 0.716721 -0.697361 0.000000
vn 0.716721 -0.697361 0.000000
vn 0.716721 -0.697361 0.000000
vn 0.716721 -0.697361 0.000000
vn 0.716721 -0.697361 0.000000
vn 0.716721 -0.697361 0.000000
vn 0.716721 -0.697361 0.000000
vn 0.716721 -0.697361 0.000000
vn 0.716721 -0.697361 0.000000
vn 0.716721 -0.697361 0.000000
vn 0.716721 -0.697361 0.000000
vn 0.716721 -0.697361 0.000000
vn 0.716721 -0.697361 0.000000
vn 0.716721 -0.697361 0.000000
vn 0.716721 -0.697361 0.000000
vn 0.716721 -0.697361 0.000000
vn 0.716721 -0.697361 0.000000
vn 0.716721 -0.697361 0.000000
vn 0.716721 -0.697361 0.000000
vn 0.716721 -0.697361 0.000000
vn 0.716721 -0.697361 0.000000
vn 0.716721 -0.697361 0.000000
vn 0.716721 -0.697361 0.000000
vn 0.716721 -0.697361 0.000000
vn 0.716721 -0.697361 0.000000
vn 0.716721 -0.697361 0.000000
vn 0.716721 -0.697361 0.000000
vn 0.716721 -0.697361 0.000000
vn 0.716721 -0.697361 0.000000
vn 0.716721 -0.697361 0.000000
vn 0.716721 -0.697361 0.000000
vn 0.716721 -0.697361 0.000000
vn 0.716721 -0.697361 0.000000
vn 0.716721 -0.697361 0.000000
vn 0.716721 -0.697361 0.000000
vn 0.716721 -0.697361 0.000000
vn 0.716721 -0.697361 0.000000
vn 0.716721 -0.697361 0.000000
vn 0.716721 -0.697361 0.000000
vn 0.716721 -0.697361 0.000000
vn 0.716721 -0.697361 0.000000
vn 0.716721 -0.697361 0.000000
vn 0.716721 -0.697361 0.000000
vn 0.716721 -0.697361 0.000000
vn 0.716721 -0.697361 0.000000
vn 0.716721 -0.697361 0.000000
vn 0.716721 -0.697361 0.000000
vn 0.716721 -0.697361 0.000000
vn 0.716721 -0.697361 0.000000
vn 0.716721 -0.697361 0.000000
vn 0.716721 -0.697361 0.000000
vn 0.716721 -0.697361 0.000000
vn 0.716721 -0.697361 0.000000
vn 0.716721 -0.697361 0.000000
vn 0.716721 -0.697361 0.000000
vn 0.716721 -0.697361 0.000000
vn 0.716721 -0.697361 0.000000
vn 0.716721 -0.697361 0.000000
s 1
g polySurface1
usemtl initialShadingGroup
f 1/1/1 2/2/2 3/3/3 4/4/4
f 5/5/5 6/6/6 7/7/7 8/8/8
f 9/9/9 10/10/10 11/11/11 12/12/12
f 4/4/4 3/3/3 37/35/13 38/36/14
s 4
f 8/37/15 7/38/16 13/13/17 15/15/18 14/14/19
s 1
f 12/12/12 11/11/11 5/5/5 39/39/20
f 38/36/14 37/35/13 9/9/9 42/42/21
f 39/39/20 5/5/5 8/8/8 44/44/22
f 42/42/21 9/9/9 12/12/12 47/47/23
f 48/48/24 1/1/1 4/4/4 49/49/25
s 5
f 1/50/26 48/51/27 16/16/28 18/18/29 17/17/30
s 1
f 47/47/23 12/12/12 39/39/20 50/52/31
f 49/49/25 4/4/4 38/36/14 51/53/32
s 4
f 44/56/33 8/37/15 14/14/19 43/43/34 40/40/35
s 1
f 51/53/32 38/36/14 42/42/21 56/59/36
f 50/52/31 39/39/20 44/44/22 57/60/37
s 4
f 41/41/38 57/61/39 44/56/33 40/40/35
s 1
f 56/59/36 42/42/21 47/47/23 58/62/40
f 61/65/41 48/48/24 49/49/25 62/66/42
f 58/62/40 47/47/23 50/52/31 63/67/43
f 62/66/42 49/49/25 51/53/32 66/70/44
f 63/67/43 50/52/31 57/60/37 67/71/45
f 66/70/44 51/53/32 56/59/36 68/72/46
s 5
f 48/51/27 61/75/47 45/45/48 46/46/49 16/16/28
s 1
f 68/72/46 56/59/36 58/62/40 71/76/50
f 71/76/50 58/62/40 63/67/43 72/77/51
f 73/78/52 61/65/41 62/66/42 74/79/53
f 74/79/53 62/66/42 66/70/44 77/82/54
f 72/77/51 63/67/43 67/71/45 78/83/55
f 77/82/54 66/70/44 68/72/46 79/84/56
s 4
f 67/85/57 57/61/39 41/41/38 55/58/58 54/57/59
s 1
f 79/84/56 68/72/46 71/76/50 80/86/60
f 80/86/60 71/76/50 72/77/51 81/87/61
f 82/88/62 73/78/52 74/79/53 83/89/63
s 5
f 61/75/47 73/90/64 52/54/65 53/55/66 45/45/48
s 1
f 81/87/61 72/77/51 78/83/55 84/91/67
f 83/89/63 74/79/53 77/82/54 85/92/68
f 85/92/68 77/82/54 79/84/56 86/93/69
f 86/93/69 79/84/56 80/86/60 87/94/70
f 87/94/70 80/86/60 81/87/61 91/98/71
f 92/99/72 82/88/62 83/89/63 93/100/73
s 4
f 78/101/74 67/85/57 54/57/59 65/69/75 64/68/76
s 1
f 91/98/71 81/87/61 84/91/67 94/102/77
f 93/100/73 83/89/63 85/92/68 95/103/78
f 95/103/78 85/92/68 86/93/69 96/104/79
s 5
f 73/90/64 82/105/80 59/63/81 60/64/82 52/54/65
s 1
f 96/104/79 86/93/69 87/94/70 99/109/83
f 99/109/83 87/94/70 91/98/71 100/110/84
f 36/34/85 92/99/72 93/100/73 19/19/86
f 100/110/84 91/98/71 94/102/77 101/111/87
f 19/19/86 93/100/73 95/103/78 20/20/88
f 20/20/88 95/103/78 96/104/79 21/21/89
s 4
f 84/112/90 78/101/74 64/68/76 70/74/91 69/73/92
s 1
f 21/21/89 96/104/79 99/109/83 22/22/93
f 22/22/93 99/109/83 100/110/84 23/23/94
f 23/23/94 100/110/84 101/111/87 24/116/95
s 4
f 94/119/96 84/112/90 69/73/92 76/81/97 75/80/98
s 5
f 82/105/80 92/120/99 88/95/100 90/97/101 89/96/102 59/63/81
f 92/120/99 36/121/103 35/106/104 98/108/105 97/107/106 88/95/100
s 4
f 101/122/107 94/119/96 75/80/98 104/115/108 103/114/109 102/113/110
f 24/24/111 101/122/107 102/113/110 106/118/112 105/117/113 25/25/114
s 5
f 108/124/115 2/125/116 1/50/26 17/17/30
s 1
f 37/35/13 109/126/117 10/10/10 9/9/9
f 11/11/11 110/127/118 6/6/6 5/5/5
s 4
f 13/13/17 7/38/16 111/128/119 107/123/120
s 1
f 3/3/3 112/129/121 109/126/117 37/35/13
f 6/6/6 115/132/122 111/133/123 7/7/7
f 10/10/10 116/134/124 110/127/118 11/11/11
f 2/2/2 121/139/125 112/129/121 3/3/3
f 109/126/117 124/142/126 116/134/124 10/10/10
f 110/127/118 125/143/127 115/132/122 6/6/6
f 112/129/121 128/146/128 124/142/126 109/126/117
s 5
f 121/147/129 2/125/116 108/124/115 120/138/130 119/137/131
s 1
f 115/132/122 129/148/132 130/149/133 111/133/123
f 116/134/124 131/150/134 125/143/127 110/127/118
s 4
f 111/128/119 130/151/135 113/130/136 114/131/137 107/123/120
s 1
f 121/139/125 134/154/138 128/146/128 112/129/121
f 125/143/127 137/157/139 129/148/132 115/132/122
f 124/142/126 138/158/140 131/150/134 116/134/124
f 129/148/132 139/159/141 140/160/142 130/149/133
f 131/150/134 141/161/143 137/157/139 125/143/127
f 128/146/128 143/164/144 138/158/140 124/142/126
s 4
f 118/136/145 140/167/146 146/168/147 117/135/148
s 5
f 123/141/149 147/169/150 134/170/151 122/140/152
s 1
f 137/157/139 148/171/153 139/159/141 129/148/132
f 138/158/140 149/172/154 141/161/143 131/150/134
f 134/154/138 147/173/155 143/164/144 128/146/128
s 4
f 130/151/135 140/167/146 118/136/145 126/144/156 113/130/136
s 5
f 134/170/151 121/147/129 119/137/131 127/145/157 122/140/152
s 1
f 139/159/141 151/175/158 146/176/159 140/160/142
f 141/161/143 152/177/160 148/171/153 137/157/139
f 143/164/144 153/178/161 149/172/154 138/158/140
f 148/171/153 154/179/162 151/175/158 139/159/141
f 149/172/154 155/180/163 152/177/160 141/161/143
f 147/173/155 156/181/164 153/178/161 143/164/144
f 151/175/158 159/184/165 160/185/166 146/176/159
f 152/177/160 161/186/167 154/179/162 148/171/153
f 153/178/161 162/187/168 155/180/163 149/172/154
f 154/179/162 164/189/169 159/184/165 151/175/158
f 155/180/163 165/190/170 161/186/167 152/177/160
f 156/181/164 166/191/171 162/187/168 153/178/161
f 159/184/165 28/27/172 27/26/173 160/185/166
f 161/186/167 167/192/174 164/189/169 154/179/162
s 4
f 146/168/147 160/193/175 135/155/176 136/156/177 117/135/148
s 1
f 162/187/168 168/194/178 165/190/170 155/180/163
s 5
f 133/153/179 169/195/180 166/196/181 132/152/182
s 1
f 164/189/169 29/28/183 28/27/172 159/184/165
f 165/190/170 170/197/184 167/192/174 161/186/167
f 166/191/171 169/198/185 168/194/178 162/187/168
s 5
f 156/199/186 147/169/150 123/141/149 145/166/187 144/165/188
s 1
f 167/192/174 30/29/189 29/28/183 164/189/169
f 168/194/178 171/200/190 170/197/184 165/190/170
s 4
f 160/193/175 27/201/191 26/162/192 142/163/193 135/155/176
s 1
f 170/197/184 31/30/194 30/29/189 167/192/174
f 169/198/185 172/202/195 171/200/190 168/194/178
f 171/200/190 32/31/196 31/30/194 170/197/184
s 5
f 166/196/181 156/199/186 144/165/188 150/174/197 132/152/182
s 1
f 172/202/195 33/203/198 32/31/196 171/200/190
s 5
f 172/204/199 169/195/180 133/153/179 158/183/200 157/182/201
f 33/32/202 172/204/199 157/182/201 163/188/203 34/33/204
s off
f 15/15/205 13/13/206 107/123/207 114/131/208 113/130/209 126/144/210 118/136/211 117/135/212 136/156/213 135/155/214 142/163/215 26/162/216 27/26/217 28/27/218 29/28/219 30/29/220 31/30/221 32/31/222 33/32/223 34/33/224 163/188/225 157/182/226 158/183/227 133/153/228 132/152/229 150/174/230 144/165/231 145/166/232 123/141/233 122/140/234 127/145/235 119/137/236 120/138/237 108/124/238 17/17/239 18/18/240 16/16/241 46/46/242 45/45/243 53/55/244 52/54/245 60/64/246 59/63/247 89/96/248 90/97/249 88/95/250 97/107/251 98/108/252 35/106/253 36/34/254 19/19/255 20/20/256 21/21/257 22/22/258 23/23/259 24/24/260 25/25/261 105/117/262 106/118/263 102/113/264 103/114/265 104/115/266 75/80/267 76/81/268 69/73/269 70/74/270 64/68/271 65/69/272 54/57/273 55/58/274 41/41/275 40/40/276 43/43/277 14/14/278
